HIERARCHY
ROOT hip
{
  OFFSET 0 0 0
  CHANNELS 6 Xposition Yposition Zposition Zrotation Yrotation Xrotation
  JOINT abdomen
  {
    OFFSET 0 20.6881 -0.73152
    CHANNELS 3 Zrotation Xrotation Yrotation
    JOINT chest
    {
      OFFSET 0 11.7043 -0.48768
      CHANNELS 3 Zrotation Xrotation Yrotation
      JOINT neck
      {
        OFFSET 0 22.1894 -2.19456
        CHANNELS 3 Zrotation Xrotation Yrotation
        JOINT head
        {
          OFFSET -0.24384 7.07133 1.2192
          CHANNELS 3 Zrotation Xrotation Yrotation
          JOINT leftEye
          {
            OFFSET 4.14528 8.04674 8.04672
            CHANNELS 3 Zrotation Xrotation Yrotation
            End Site
            {
              OFFSET 1 0 0
            }
          }
          JOINT rightEye
          {
            OFFSET -3.6576 8.04674 8.04672
            CHANNELS 3 Zrotation Xrotation Yrotation
            End Site
            {
              OFFSET 1 0 0
            }
          }
        }
      }
      JOINT rCollar
      {
        OFFSET -2.68224 19.2634 -4.8768
        CHANNELS 3 Zrotation Xrotation Yrotation
        JOINT rShldr
        {
          OFFSET -8.77824 -1.95073 1.46304
          CHANNELS 3 Zrotation Xrotation Yrotation
          JOINT rForeArm
          {
            OFFSET -28.1742 -1.7115 0.48768
            CHANNELS 3 Zrotation Xrotation Yrotation
            JOINT rHand
            {
              OFFSET -22.5879 0.773209 7.07136
              CHANNELS 3 Zrotation Xrotation Yrotation
              JOINT rThumb1
              {
                OFFSET -1.2192 -0.487915 3.41376
                CHANNELS 3 Zrotation Xrotation Yrotation
                JOINT rThumb2
                {
                  OFFSET -3.37035 -0.52449 3.41376
                  CHANNELS 3 Zrotation Xrotation Yrotation
                  End Site
                  {
                    OFFSET -1.78271 -1.18214 1.43049
                  }
                }
              }
              JOINT rIndex1
              {
                OFFSET -7.75947 0.938293 5.60832
                CHANNELS 3 Zrotation Xrotation Yrotation
                JOINT rIndex2
                {
                  OFFSET -2.54057 -0.884171 1.56538
                  CHANNELS 3 Zrotation Xrotation Yrotation
                  End Site
                  {
                    OFFSET -1.62519 -0.234802 1.16502
                  }
                }
              }
              JOINT rMid1
              {
                OFFSET -8.24714 1.18213 3.41376
                CHANNELS 3 Zrotation Xrotation Yrotation
                JOINT rMid2
                {
                  OFFSET -3.10165 -0.590103 1.0647
                  CHANNELS 3 Zrotation Xrotation Yrotation
                  End Site
                  {
                    OFFSET -2.48547 -0.328903 0.83742
                  }
                }
              }
              JOINT rRing1
              {
                OFFSET -8.82822 0.546677 1.51678
                CHANNELS 3 Zrotation Xrotation Yrotation
                JOINT rRing2
                {
                  OFFSET -2.60934 -0.819778 -0.0198488
                  CHANNELS 3 Zrotation Xrotation Yrotation
                  End Site
                  {
                    OFFSET -2.33842 -0.294052 0.168128
                  }
                }
              }
              JOINT rPinky1
              {
                OFFSET -8.27202 -0.0477905 -0.4584
                CHANNELS 3 Zrotation Xrotation Yrotation
                JOINT rPinky2
                {
                  OFFSET -1.82734 -0.647385 -0.700984
                  CHANNELS 3 Zrotation Xrotation Yrotation
                  End Site
                  {
                    OFFSET -1.69225 -0.51767 -0.607171
                  }
                }
              }
            }
          }
        }
      }
      JOINT lCollar
      {
        OFFSET 2.68224 19.2634 -4.8768
        CHANNELS 3 Zrotation Xrotation Yrotation
        JOINT lShldr
        {
          OFFSET 8.77824 -1.95073 1.46304
          CHANNELS 3 Zrotation Xrotation Yrotation
          JOINT lForeArm
          {
            OFFSET 28.1742 -1.7115 0.48768
            CHANNELS 3 Zrotation Xrotation Yrotation
            JOINT lHand
            {
              OFFSET 22.5879 0.773209 7.07136
              CHANNELS 3 Zrotation Xrotation Yrotation
              JOINT lThumb1
              {
                OFFSET 1.2192 -0.487915 3.41376
                CHANNELS 3 Zrotation Xrotation Yrotation
                JOINT lThumb2
                {
                  OFFSET 3.37035 -0.52449 3.41376
                  CHANNELS 3 Zrotation Xrotation Yrotation
                  End Site
                  {
                    OFFSET 1.78271 -1.18214 1.43049
                  }
                }
              }
              JOINT lIndex1
              {
                OFFSET 7.75947 0.938293 5.60832
                CHANNELS 3 Zrotation Xrotation Yrotation
                JOINT lIndex2
                {
                  OFFSET 2.54057 -0.884171 1.56538
                  CHANNELS 3 Zrotation Xrotation Yrotation
                  End Site
                  {
                    OFFSET 1.62519 -0.234802 1.16502
                  }
                }
              }
              JOINT lMid1
              {
                OFFSET 8.24714 1.18213 3.41376
                CHANNELS 3 Zrotation Xrotation Yrotation
                JOINT lMid2
                {
                  OFFSET 3.10165 -0.590103 1.0647
                  CHANNELS 3 Zrotation Xrotation Yrotation
                  End Site
                  {
                    OFFSET 2.48547 -0.328903 0.83742
                  }
                }
              }
              JOINT lRing1
              {
                OFFSET 8.82822 0.546677 1.51678
                CHANNELS 3 Zrotation Xrotation Yrotation
                JOINT lRing2
                {
                  OFFSET 2.60934 -0.819778 -0.0198488
                  CHANNELS 3 Zrotation Xrotation Yrotation
                  End Site
                  {
                    OFFSET 2.33842 -0.294052 0.168128
                  }
                }
              }
              JOINT lPinky1
              {
                OFFSET 8.27202 -0.0477905 -0.4584
                CHANNELS 3 Zrotation Xrotation Yrotation
                JOINT lPinky2
                {
                  OFFSET 1.82734 -0.647385 -0.700984
                  CHANNELS 3 Zrotation Xrotation Yrotation
                  End Site
                  {
                    OFFSET 1.69225 -0.51767 -0.607171
                  }
                }
              }
            }
          }
        }
      }
    }
  }
  JOINT rButtock
  {
    OFFSET -8.77824 4.35084 1.2192
    CHANNELS 3 Zrotation Xrotation Yrotation
    JOINT rThigh
    {
      OFFSET 0 -1.70687 -2.19456
      CHANNELS 3 Zrotation Xrotation Yrotation
      JOINT rShin
      {
        OFFSET 0 -36.8199 0.73152
        CHANNELS 3 Zrotation Xrotation Yrotation
        JOINT rFoot
        {
          OFFSET 0.73152 -45.1104 -5.12064
          CHANNELS 3 Zrotation Xrotation Yrotation
          End Site
          {
            OFFSET -1.1221 -3.69964 12.103
          }
        }
      }
    }
  }
  JOINT lButtock
  {
    OFFSET 8.77824 4.35084 1.2192
    CHANNELS 3 Zrotation Xrotation Yrotation
    JOINT lThigh
    {
      OFFSET 0 -1.70687 -2.19456
      CHANNELS 3 Zrotation Xrotation Yrotation
      JOINT lShin
      {
        OFFSET 0 -36.8199 0.73152
        CHANNELS 3 Zrotation Xrotation Yrotation
        JOINT lFoot
        {
          OFFSET -0.73152 -45.1104 -5.12064
          CHANNELS 3 Zrotation Xrotation Yrotation
          End Site
          {
            OFFSET 1.1221 -3.69964 12.103
          }
        }
      }
    }
  }
}
MOTION
Frames:	7
Frame Time:	0.00833333
-7.05431 85.1388 130.511 0.0 0.0 0.0 0.410575 -0.00336393 0.0117802 0.113455 -0.00539469 0.0196586 8.40692e-15 1.59028e-15 -3.10601e-17 2.51944e-14 1.59028e-14 -1.25793e-16 -0.0 0.0 0.0 -0.0 0.0 0.0 4.37209e-15 2.32951e-18 9.93923e-17 8.90479e-14 3.10601e-16 7.95139e-16 1.51847e-12 -4.50048e-13 -3.18055e-15 1.73779e-11 4.72089e-13 -7.63333e-14 4.09881e-11 4.29698e-14 -1.65389e-13 7.07646e-11 7.63333e-14 -2.87045e-13 4.09902e-11 4.01545e-14 -1.78111e-13 7.73091 5.47488 0.417314 4.09857e-11 4.19436e-14 -1.68569e-13 2.90554 0.965183 0.102902 4.0991e-11 4.22417e-14 -1.66979e-13 10.2786 0.731801 0.0259123 4.09789e-11 4.57205e-14 -1.52667e-13 2.22167 -0.733487 -0.20892 4.07653e-15 2.13538e-18 -1.49089e-16 8.75239e-14 2.11209e-16 -9.93923e-16 1.51906e-12 4.55614e-13 -2.54444e-14 1.73719e-11 -4.46371e-13 -3.81667e-14 4.09847e-11 1.43796e-14 -1.74931e-13 7.07964e-11 1.59028e-14 -2.94201e-13 4.09834e-11 1.03368e-14 -1.62208e-13 -7.73091 5.47488 -0.417314 4.09848e-11 1.37161e-14 -1.7175e-13 -2.90554 0.965183 -0.102902 4.09865e-11 1.39149e-14 -1.66979e-13 -10.2786 0.731801 -0.0259123 4.09896e-11 1.90833e-14 -1.74931e-13 -2.22167 -0.733487 0.20892 -2.03217e-16 0.0 -3.88251e-19 0.770895 -4.17179 -0.0656915 -0.00265694 2.00547 -0.0182888 -0.46213 2.16691 0.0961413 2.03217e-16 0.0 3.88251e-19 -0.142945 -2.55997 0.0260622 0.0071611 -0.914059 0.0621534 0.453473 3.47456 -0.121182
-7.29695 83.6974 124.979 174.802 3.1779 -157.006 -2.41854 -6.49231 -1.50989 0.925764 3.95939 -0.303377 -0.491232 3.73488 -1.56218 1.49752 -0.542065 -2.2528 -0.0 0.0 0.0 -0.0 0.0 0.0 -3.01719e-14 -1.94721e-13 4.2067e-15 23.2235 3.88574 -0.906685 -5.02864 -2.47291 7.63939 0.000751854 -0.608575 -0.0855122 5.75155e-10 -1.31089e-09 1.61586e-09 9.94802e-10 -2.26461e-09 2.79521e-09 5.75156e-10 -1.31089e-09 1.61585e-09 7.73091 5.47488 0.417314 5.75153e-10 -1.31089e-09 1.61586e-09 2.90554 0.965183 0.102902 5.75158e-10 -1.31089e-09 1.61586e-09 10.2786 0.731801 0.0259123 5.75148e-10 -1.31088e-09 1.61587e-09 2.22167 -0.733487 -0.20892 -3.04171e-14 -1.9472e-13 3.94347e-15 -20.7284 5.50092 -1.19944 3.35512 -1.38541 -5.38168 -0.00200881 0.996707 -0.140002 9.7376e-10 -9.68881e-10 -1.97539e-09 1.67387e-09 -1.68018e-09 -3.41799e-09 9.73758e-10 -9.68883e-10 -1.97537e-09 -7.73091 5.47488 -0.417314 9.73761e-10 -9.68881e-10 -1.97538e-09 -2.90554 0.965183 -0.102902 9.73758e-10 -9.6888e-10 -1.97538e-09 -10.2786 0.731801 -0.0259123 9.73764e-10 -9.68876e-10 -1.97538e-09 -2.22167 -0.733487 0.20892 -2.03217e-16 0.0 -3.88251e-19 -0.246696 -10.9758 1.81623 0.000219503 3.92768 0.0307454 -0.589496 -1.85222 -0.599221 2.03217e-16 0.0 3.88251e-19 -2.15715 -8.53278 -1.60971 0.00787075 0.833947 0.040424 0.524308 1.81948 -0.515729
-7.25313 83.6808 125.015 175.064 3.1546 -156.86 -5.81136 -13.3201 -3.18847 1.82925 8.14156 -0.649316 -0.795874 7.66632 -3.2281 3.05739 -1.09078 -4.61624 -0.0 0.0 0.0 -0.0 0.0 0.0 -6.92353e-14 -4.11385e-13 9.71871e-15 47.9162 7.99611 -1.88206 -9.63338 -4.93986 15.7592 -0.00043117 -1.25428 -0.176274 1.1617e-09 -2.74763e-09 3.41106e-09 2.00942e-09 -4.74657e-09 5.90065e-09 1.16171e-09 -2.74763e-09 3.41106e-09 7.73091 5.47488 0.417314 1.1617e-09 -2.74763e-09 3.41107e-09 2.90554 0.965183 0.102902 1.16171e-09 -2.74763e-09 3.41107e-09 10.2786 0.731801 0.0259123 1.1617e-09 -2.74763e-09 3.41108e-09 2.22167 -0.733487 -0.20892 -6.94247e-14 -4.11383e-13 9.43917e-15 -42.3799 11.2957 -2.49465 6.62082 -2.80955 -11.0817 0.00118297 2.05849 -0.28929 2.00408e-09 -2.04987e-09 -4.15771e-09 3.44454e-09 -3.55473e-09 -7.19401e-09 2.00407e-09 -2.04986e-09 -4.1577e-09 -7.73091 5.47488 -0.417314 2.00408e-09 -2.04987e-09 -4.15771e-09 -2.90554 0.965183 -0.102902 2.00407e-09 -2.04986e-09 -4.1577e-09 -10.2786 0.731801 -0.0259123 2.00408e-09 -2.04986e-09 -4.15771e-09 -2.22167 -0.733487 0.20892 -2.03217e-16 0.0 -3.88251e-19 -0.831044 -18.1262 3.93117 -0.000328771 5.95524 0.0828331 -0.831083 -6.10036 -1.34418 2.03217e-16 0.0 3.88251e-19 -4.68719 -14.8145 -3.41196 0.010053 2.67875 0.0175091 0.574184 0.0706316 -0.936598
-7.22057 83.6771 125.026 175.261 3.1282 -156.728 -9.16246 -19.4138 -4.79753 2.68697 11.8875 -0.968038 -0.853425 11.171 -4.76711 4.36496 -1.61614 -6.76081 -0.0 0.0 0.0 -0.0 0.0 0.0 -9.92599e-14 -5.84167e-13 1.24213e-14 70.0459 11.6454 -2.77088 -13.1543 -6.89234 23.073 -0.00319645 -1.82571 -0.256652 1.64349e-09 -3.93275e-09 4.84791e-09 2.84288e-09 -6.79399e-09 8.3862e-09 1.64349e-09 -3.93274e-09 4.84791e-09 7.73091 5.47488 0.417314 1.64349e-09 -3.93274e-09 4.84792e-09 2.90554 0.965183 0.102902 1.64349e-09 -3.93274e-09 4.84792e-09 10.2786 0.731801 0.0259123 1.64349e-09 -3.93274e-09 4.84793e-09 2.22167 -0.733487 -0.20892 -9.94044e-14 -5.84165e-13 1.21286e-14 -61.4695 16.4732 -3.73526 9.29444 -4.0098 -16.181 0.00860311 2.99005 -0.420515 2.83931e-09 -2.90667e-09 -5.92581e-09 4.88001e-09 -5.04058e-09 -1.02534e-08 2.83931e-09 -2.90667e-09 -5.9258e-09 -7.73091 5.47488 -0.417314 2.83931e-09 -2.90667e-09 -5.9258e-09 -2.90554 0.965183 -0.102902 2.8393e-09 -2.90667e-09 -5.9258e-09 -10.2786 0.731801 -0.0259123 2.83931e-09 -2.90667e-09 -5.9258e-09 -2.22167 -0.733487 0.20892 -2.03217e-16 0.0 -3.88251e-19 -0.825643 -24.4801 6.02321 -0.00397842 7.77208 0.129767 -1.1401 -9.88477 -2.01885 2.03217e-16 0.0 3.88251e-19 -7.2677 -20.4124 -5.15205 0.0132677 4.32996 -0.00304061 0.597602 -1.4901 -1.30493
-7.18233 83.6687 125.054 175.494 3.0976 -156.531 -11.626 -23.726 -6.00256 3.33392 14.5441 -1.20125 -0.727208 13.6399 -5.91386 5.12155 -2.09138 -8.3564 -0.0 0.0 0.0 -0.0 0.0 0.0 -1.06687e-13 -6.47244e-13 8.10048e-15 85.4983 14.1536 -3.39425 -15.3076 -8.05946 28.224 -0.00600179 -2.21146 -0.310956 1.86336e-09 -4.4888e-09 5.38888e-09 3.22342e-09 -7.75506e-09 9.32202e-09 1.86336e-09 -4.4888e-09 5.38888e-09 7.73091 5.47488 0.417314 1.86336e-09 -4.4888e-09 5.38889e-09 2.90554 0.965183 0.102902 1.86336e-09 -4.4888e-09 5.38889e-09 10.2786 0.731801 0.0259123 1.86336e-09 -4.4888e-09 5.38889e-09 2.22167 -0.733487 -0.20892 -1.06815e-13 -6.47242e-13 7.8023e-15 -74.6555 20.1346 -4.71341 11.028 -4.78996 -19.744 0.0158868 3.59611 -0.506072 3.18683e-09 -3.20303e-09 -6.65833e-09 5.47745e-09 -5.55468e-09 -1.15211e-08 3.18682e-09 -3.20303e-09 -6.65832e-09 -7.73091 5.47488 -0.417314 3.18683e-09 -3.20303e-09 -6.65832e-09 -2.90554 0.965183 -0.102902 3.18682e-09 -3.20303e-09 -6.65832e-09 -10.2786 0.731801 -0.0259123 3.18683e-09 -3.20303e-09 -6.65832e-09 -2.22167 -0.733487 0.20892 -2.03217e-16 0.0 -3.88251e-19 -0.402411 -28.9376 7.66439 -0.0083831 9.06218 0.162988 -1.40558 -12.5157 -2.48689 2.03217e-16 0.0 3.88251e-19 -9.20047 -24.3609 -6.49448 0.0162792 5.49722 -0.0176155 0.604186 -2.58125 -1.54086
-7.14178 83.6554 125.093 175.737 3.0564 -156.273 -12.4604 -25.5864 -6.4629 3.65867 15.69 -1.30394 -0.537781 14.6875 -6.4617 5.12342 -2.53431 -9.19477 -0.0 0.0 0.0 -0.0 0.0 0.0 -7.433e-14 -5.3687e-13 -1.15311e-14 91.4612 15.0659 -3.60003 -16.0941 -8.46979 30.2659 -0.0071294 -2.33546 -0.328423 1.71173e-09 -4.16433e-09 4.53967e-09 2.96175e-09 -7.19597e-09 7.85307e-09 1.71173e-09 -4.16433e-09 4.53967e-09 7.73091 5.47488 0.417314 1.71173e-09 -4.16433e-09 4.53968e-09 2.90554 0.965183 0.102902 1.71174e-09 -4.16433e-09 4.53968e-09 10.2786 0.731801 0.0259123 1.71173e-09 -4.16433e-09 4.53968e-09 2.22167 -0.733487 -0.20892 -7.44897e-14 -5.36867e-13 -1.18226e-14 -79.8238 21.6937 -5.25511 11.6709 -5.07525 -21.126 0.0182645 3.74042 -0.526483 2.81774e-09 -2.60267e-09 -5.84085e-09 4.84393e-09 -4.51407e-09 -1.01073e-08 2.81774e-09 -2.60266e-09 -5.84085e-09 -7.73091 5.47488 -0.417314 2.81775e-09 -2.60267e-09 -5.84085e-09 -2.90554 0.965183 -0.102902 2.81773e-09 -2.60266e-09 -5.84084e-09 -10.2786 0.731801 -0.0259123 2.81774e-09 -2.60266e-09 -5.84084e-09 -2.22167 -0.733487 0.20892 -2.03217e-16 0.0 -3.88251e-19 0.0558968 -30.8121 8.38665 -0.0105809 9.61598 0.176436 -1.51286 -13.5297 -2.64237 2.03217e-16 0.0 3.88251e-19 -9.84386 -26.0481 -7.11618 0.017769 5.99025 -0.0238012 0.60923 -3.01751 -1.58831
-7.10035 83.6439 125.121 175.976 2.9992 -156.058 -12.0277 -25.7079 -6.33498 3.74104 15.7563 -1.3093 -0.355338 14.7269 -6.56447 4.59708 -2.95473 -9.4915 -0.0 0.0 0.0 -0.0 0.0 0.0 -1.3943e-14 -3.03547e-13 -4.1838e-14 90.6186 14.841 -3.49831 -16.0219 -8.43772 30.068 -0.00670424 -2.27259 -0.319571 1.29499e-09 -3.2109e-09 2.70395e-09 2.24173e-09 -5.55099e-09 4.67763e-09 1.29499e-09 -3.2109e-09 2.70394e-09 7.73091 5.47488 0.417314 1.29499e-09 -3.2109e-09 2.70395e-09 2.90554 0.965183 0.102902 1.29499e-09 -3.2109e-09 2.70395e-09 10.2786 0.731801 0.0259123 1.29498e-09 -3.2109e-09 2.70396e-09 2.22167 -0.733487 -0.20892 -1.41704e-14 -3.03543e-13 -4.21144e-14 -79.3333 21.758 -5.45192 11.5861 -5.03471 -20.9448 0.0163567 3.55521 -0.500333 1.93841e-09 -1.36712e-09 -3.921e-09 3.33389e-09 -2.37222e-09 -6.78638e-09 1.9384e-09 -1.36712e-09 -3.921e-09 -7.73091 5.47488 -0.417314 1.93841e-09 -1.36712e-09 -3.921e-09 -2.90554 0.965183 -0.102902 1.9384e-09 -1.36712e-09 -3.921e-09 -10.2786 0.731801 -0.0259123 1.93841e-09 -1.36712e-09 -3.921e-09 -2.22167 -0.733487 0.20892 -2.03217e-16 0.0 -3.88251e-19 0.387484 -30.8645 8.35889 -0.0104388 9.64379 0.175606 -1.48501 -13.3901 -2.56741 2.03217e-16 0.0 3.88251e-19 -9.46124 -26.1342 -7.16575 0.0178695 6.00154 -0.0239609 0.617641 -2.98602 -1.50074
